<svg xmlns="http://www.w3.org/2000/svg" viewBox="0 0 247.35 72.44">
    <defs>
        <style>
            .cls-1{fill:#e83530;stroke:#e83530;}
            .cls-1,.cls-2,.cls-3{stroke-width:0.47px;}
            .cls-2{fill:#0054a6;stroke:#0054a6;}
            .cls-3{fill:#ffe400;stroke:#ffe400;}
            .cls-4{fill:#c5c6c8;}
        </style>
    </defs>
    <title>logo</title>
    <g id="Layer_2" data-name="Layer 2">
        <g id="Layer_1-2" data-name="Layer 1">
            <path class="cls-1" d="M19.57,63.55c-1.51-9.79,1.61-18.47,8.22-21.41,8.76-3.9,20.67,3.72,26.58,17a36.06,36.06,0,0,1,3.25,13H36.48s1.38-19.7-7.59-20.57c0,0-6.91-1.55-8.81,7.94C20.09,59.58,19.83,61.48,19.57,63.55Z"/>
            <path class="cls-2" d="M25.19,20.6c5.87,4.29,8.68,10.3,6.66,15.11-2.67,6.36-13,8.36-23,4.45a27.09,27.09,0,0,1-8.48-5.1L11.67,24.55s9.44,10.82,14.69,6.81c0,0,4.5-2.64.61-8.46C27,22.9,26.12,21.79,25.19,20.6Z"/>
            <path class="cls-3" d="M59.5,39.12c-8.77,4.61-18,4.49-22.92-.8C30,31.3,33.37,17.57,44,7.63A36.2,36.2,0,0,1,55.29.31l6.89,20s-19.07,5.1-17,13.87c0,0,.78,7,10.37,5.74C55.58,39.92,57.46,39.55,59.5,39.12Z"/>
            <path class="cls-4" d="M97.7,63c-9.21,0-15.76-5.64-15.76-13.55s6.62-13.43,16-13.43c5.45,0,10.38,1.82,15.24,4.54V30.75c-4.35-2.59-9.86-3.89-16-3.89-16.92,0-26.58,11-26.58,22.82,0,11.41,8.55,22.57,25.74,22.57,6.55,0,11.22-1.24,17.38-4.41V58.18C107.36,61.22,103.47,63,97.7,63Z"/>
            <path class="cls-4" d="M141.92,27.44H122.41V71.66h18.28c17.64,0,25.67-9.33,25.67-22C166.36,37.49,158.07,27.44,141.92,27.44Zm-1.3,36.12h-7.19v-28h7.06c10.44,0,14.53,6.43,14.53,14C155,56,151.71,63.56,140.62,63.56Z"/>
            <path class="cls-4" d="M185.62,63.56V52.92h20.17v-8.1H185.62V35.54h21.14v-8.1H174.61V71.66h32.61v-8.1Z"/>
            <path class="cls-4" d="M224.85,38.59c0-2.2,2.53-3.63,6.48-3.63,3.77,0,7.59,1.1,14,4V30.29a36.3,36.3,0,0,0-15-3.43c-10.24,0-16.86,5.06-16.86,12.71,0,15.88,22.5,13.22,22.5,20.49,0,2.59-2.26,4.08-6.48,4.08-4.87,0-8.76-1.49-15.11-5.71V68c4.41,2.26,8.23,4.28,15.95,4.28,9.86,0,17-4.93,17-13.43C247.35,43.39,224.85,45.27,224.85,38.59Z"/>
        </g>
    </g>
</svg>